<svg xmlns="http://www.w3.org/2000/svg" viewBox="0 0 18 18">
  <path
    fill="#4285F4"
    d="M17.64 9.2045c0-.6382-.0573-1.2518-.1636-1.8409H9v3.4818h4.8436c-.2082 1.125-.8427 2.0782-1.7964 2.7164v2.2582h2.9081c1.7018-1.5664 2.6847-3.8745 2.6847-6.6155z"
  />
  <path
    fill="#34A853"
    d="M9 18c2.43 0 4.4673-.8064 5.9564-2.18l-2.9081-2.2582c-.8064.54-1.8364.8591-3.0482.8591-2.3441 0-4.3282-1.5832-5.0364-3.7109H.9573v2.3318A8.9977 8.9977 0 0 0 9 18z"
  />
  <path
    fill="#FBBC05"
    d="M3.9636 10.71A5.4104 5.4104 0 0 1 3.6818 9c0-.5936.1018-1.1691.2818-1.71V4.9582H.9573A8.9964 8.9964 0 0 0 0 9c0 1.4527.3482 2.8273.9573 4.0418L3.9636 10.71z"
  />
  <path
    fill="#EA4335"
    d="M9 3.5795c1.3214 0 2.5077.4541 3.4405 1.3459l2.5813-2.5814C13.4636.8918 11.43 0 9 0A8.9977 8.9977 0 0 0 .9573 4.9582l3.0063 2.3318C4.6718 5.1627 6.6559 3.5795 9 3.5795z"
  />
</svg>